<?xml version="1.0" standalone="no"?>
<!DOCTYPE svg PUBLIC "-//W3C//DTD SVG 20010904//EN"
 "http://www.w3.org/TR/2001/REC-SVG-20010904/DTD/svg10.dtd">
<svg version="1.0" xmlns="http://www.w3.org/2000/svg"
 width="512.000000pt" height="512.000000pt" viewBox="0 0 512.000000 512.000000"
 preserveAspectRatio="xMidYMid meet">
<metadata>
Created by potrace 1.11, written by Peter Selinger 2001-2013
</metadata>
<g transform="translate(0.000000,512.000000) scale(0.100000,-0.100000)"
fill="#000000" stroke="none">
<path d="M1998 4725 c-1 -1 -32 -6 -68 -9 -476 -49 -941 -328 -1216 -731 -79
-116 -144 -237 -188 -350 -36 -93 -80 -251 -90 -320 -4 -22 -10 -63 -15 -92
-18 -118 -13 -349 13 -518 9 -55 48 -200 76 -280 37 -102 147 -325 171 -345 3
-3 12 -16 19 -29 7 -14 17 -30 21 -35 5 -6 30 -38 55 -71 97 -124 249 -266
389 -362 177 -121 465 -236 648 -259 23 -3 48 -7 55 -9 19 -7 189 -18 267 -19
71 0 206 10 260 19 160 28 265 57 394 108 l106 43 425 -423 c234 -232 452
-448 485 -480 70 -67 139 -107 228 -129 59 -16 206 -21 256 -10 110 24 188 72
262 159 169 201 197 420 83 638 -31 59 -94 126 -504 536 l-468 468 43 100 c38
86 87 233 101 300 2 11 6 31 9 45 3 14 8 42 11 64 3 21 8 48 11 60 2 11 6 93
7 181 6 289 -48 535 -169 780 -83 168 -140 254 -249 380 -242 276 -595 488
-921 551 -11 2 -42 8 -70 14 -27 6 -66 12 -85 15 -40 6 -346 15 -352 10z"/>
</g>
</svg>
